<?xml version="1.0" standalone="no"?>
<!DOCTYPE svg PUBLIC "-//W3C//DTD SVG 20010904//EN"
 "http://www.w3.org/TR/2001/REC-SVG-20010904/DTD/svg10.dtd">
<svg version="1.0" xmlns="http://www.w3.org/2000/svg"
 width="1632.000000pt" height="1632.000000pt" viewBox="0 0 1632.000000 1632.000000"
 preserveAspectRatio="xMidYMid meet">
<metadata>
Created by potrace 1.14, written by Peter Selinger 2001-2017
</metadata>
<g transform="translate(0.000000,1632.000000) scale(0.100000,-0.100000)"
fill="#000000" stroke="none">
<path d="M7858 13115 c-2 -1 -54 -6 -116 -10 -62 -3 -123 -8 -135 -10 -12 -2
-49 -7 -82 -10 -33 -3 -73 -8 -90 -10 -16 -2 -52 -7 -80 -11 -27 -3 -59 -8
-70 -10 -86 -14 -72 -11 -215 -41 -41 -8 -82 -16 -90 -17 -8 -1 -24 -5 -35 -9
-11 -3 -35 -9 -54 -12 -19 -3 -42 -10 -52 -16 -10 -5 -22 -8 -26 -7 -9 2 -87
-20 -118 -33 -11 -4 -45 -15 -75 -24 -30 -8 -80 -24 -110 -36 -120 -45 -187
-72 -222 -90 -20 -10 -39 -15 -42 -12 -3 4 -6 1 -6 -5 0 -7 -3 -11 -7 -10 -10
4 -267 -124 -271 -134 -2 -5 -8 -8 -13 -8 -6 0 -35 -16 -65 -35 -30 -19 -57
-35 -60 -35 -3 0 -23 -13 -44 -30 -21 -16 -43 -30 -49 -30 -6 0 -11 -4 -11
-10 0 -5 -5 -10 -10 -10 -10 0 -59 -35 -175 -123 -16 -12 -37 -30 -47 -39 -10
-10 -18 -16 -18 -13 0 3 -8 -3 -18 -12 -10 -10 -53 -49 -96 -88 -148 -132
-260 -251 -406 -432 -54 -67 -220 -299 -220 -308 0 -3 -25 -43 -55 -90 -30
-47 -52 -85 -48 -85 3 0 -1 -8 -10 -18 -19 -21 -208 -392 -200 -392 3 0 -1
-10 -9 -22 -8 -13 -29 -61 -48 -108 -18 -47 -39 -98 -46 -115 -15 -32 -100
-270 -115 -319 -5 -16 -7 -32 -4 -34 3 -3 0 -11 -6 -18 -14 -17 -99 -315 -98
-344 0 -12 2 -12 6 -1 3 7 13 21 22 31 9 9 23 27 31 39 8 13 26 36 40 51 14
16 50 59 80 97 61 75 351 369 418 423 24 19 51 42 60 51 26 23 142 112 184
139 21 14 38 28 38 31 0 4 11 10 25 13 14 4 25 11 25 16 0 6 7 10 15 10 8 0
15 5 15 10 0 6 5 10 10 10 6 0 29 12 53 27 59 38 267 144 267 137 0 -4 6 -2
13 4 11 9 107 51 132 57 6 1 17 5 25 8 30 12 146 49 165 52 11 2 38 8 60 14
22 5 40 10 40 10 0 0 7 2 15 4 15 5 118 22 195 33 65 10 509 13 520 4 6 -5 29
-7 53 -7 23 1 42 0 42 -3 0 -3 12 -5 28 -5 15 1 32 -1 37 -4 6 -3 19 -7 30 -8
11 -2 34 -6 50 -8 17 -3 47 -8 68 -12 20 -3 37 -10 37 -15 0 -5 5 -6 10 -3 11
7 68 -8 200 -53 94 -31 141 -52 255 -109 50 -25 100 -51 112 -57 13 -6 23 -14
23 -18 0 -5 6 -8 13 -8 7 0 24 -10 37 -22 14 -13 25 -21 25 -18 0 6 124 -79
149 -102 11 -10 23 -18 27 -18 4 0 14 -6 21 -13 7 -6 38 -32 68 -57 30 -24 63
-53 73 -64 9 -10 17 -16 17 -13 0 3 11 -4 23 -16 13 -12 72 -67 132 -122 59
-55 271 -262 471 -460 331 -328 415 -409 526 -507 96 -86 135 -119 218 -187
14 -11 30 -25 37 -31 7 -6 54 -42 105 -80 51 -38 98 -74 103 -78 6 -4 53 -37
105 -72 52 -35 98 -68 102 -74 4 -6 8 -8 8 -4 0 4 35 -14 78 -41 42 -26 102
-61 132 -77 30 -16 57 -31 60 -34 10 -11 304 -150 350 -165 13 -4 67 -26 85
-35 24 -10 164 -60 255 -89 116 -38 129 -42 150 -46 12 -2 30 -7 40 -10 10 -3
27 -8 37 -10 10 -2 54 -13 98 -24 44 -10 97 -22 119 -25 21 -4 41 -8 45 -10 4
-3 27 -7 51 -11 25 -3 59 -8 75 -11 17 -2 46 -7 65 -9 19 -2 35 -5 35 -6 0 -2
91 -14 185 -24 19 -2 58 -6 85 -9 28 -3 80 -8 117 -10 37 -3 72 -7 78 -11 5
-3 10 -2 10 4 0 7 8 7 23 2 12 -5 171 -7 352 -6 338 3 393 6 630 31 39 4 80 8
93 8 12 1 22 3 22 6 0 3 12 6 28 7 36 2 142 17 187 27 15 4 109 20 117 21 3 0
9 3 13 7 4 4 13 4 20 2 7 -3 16 0 20 5 3 6 10 9 14 6 14 -8 434 111 506 144
11 5 47 19 80 31 33 12 65 26 71 31 6 5 19 10 30 12 10 2 40 14 66 26 26 12
50 20 52 19 2 -2 14 6 26 17 12 11 23 18 24 16 2 -7 199 97 248 131 14 10 28
18 31 18 9 0 192 123 195 132 2 4 8 8 13 8 6 0 15 4 22 10 7 5 62 49 122 97
61 48 125 101 144 118 68 61 241 237 288 293 26 31 57 66 68 77 31 31 175 224
175 234 0 5 3 11 8 13 11 5 112 155 112 166 0 6 4 12 8 14 10 4 101 160 101
172 -1 5 3 12 9 15 7 5 112 198 121 223 1 4 18 41 37 82 18 41 34 79 34 85 0
6 5 11 10 11 6 0 10 7 10 16 0 8 9 34 19 57 30 65 81 197 84 215 2 9 10 32 20
51 9 18 14 37 11 42 -3 5 -1 9 3 9 5 0 9 10 10 22 1 11 6 24 10 27 4 3 10 13
11 21 2 8 6 22 8 30 1 8 19 67 39 130 19 63 38 124 40 135 3 11 11 43 20 70 8
28 15 59 15 70 0 17 -2 17 -17 -5 -9 -14 -19 -27 -22 -30 -4 -3 -33 -39 -66
-80 -33 -41 -67 -82 -75 -91 -8 -8 -51 -56 -95 -104 -117 -129 -227 -236 -351
-342 -96 -81 -246 -192 -261 -193 -6 0 -13 -4 -15 -8 -5 -12 -148 -103 -148
-94 0 4 -4 2 -8 -3 -4 -6 -38 -27 -77 -45 -38 -19 -71 -38 -73 -42 -2 -5 -12
-8 -23 -8 -10 0 -19 -4 -19 -10 0 -5 -9 -10 -19 -10 -11 0 -23 -4 -26 -10 -3
-5 -15 -10 -26 -10 -10 0 -19 -4 -19 -8 0 -5 -6 -9 -12 -10 -11 0 -213 -70
-213 -73 0 0 -14 -3 -60 -13 -5 -1 -14 -4 -20 -8 -5 -3 -26 -9 -45 -12 -44 -7
-77 -14 -98 -20 -9 -3 -39 -7 -67 -11 -27 -3 -63 -8 -80 -10 -16 -3 -65 -7
-107 -10 -43 -3 -81 -6 -85 -6 -5 -1 -10 0 -13 1 -17 6 -40 7 -40 1 0 -7 -6
-7 -180 3 -107 7 -166 12 -210 21 -14 3 -42 7 -62 9 -20 2 -45 7 -55 10 -10 3
-29 7 -43 10 -61 12 -119 25 -170 40 -30 9 -62 18 -70 20 -16 4 -90 32 -125
46 -117 49 -152 66 -166 77 -9 8 -27 16 -39 18 -13 3 -26 9 -29 13 -3 5 -22
17 -41 27 -19 10 -46 26 -60 35 -14 9 -61 41 -105 70 -44 30 -82 56 -85 59 -3
4 -23 19 -45 36 -22 16 -42 32 -45 35 -3 3 -25 21 -50 40 -24 19 -52 42 -60
50 -9 8 -41 36 -71 61 -82 71 -160 146 -575 557 -345 343 -449 441 -584 558
-25 21 -47 42 -50 45 -3 3 -50 41 -105 85 -55 43 -105 84 -111 89 -6 6 -22 17
-34 25 -20 14 -49 36 -77 60 -7 5 -16 10 -22 10 -5 0 -11 4 -13 8 -3 9 -294
202 -304 202 -3 0 -18 9 -34 20 -15 11 -30 17 -34 13 -3 -3 -6 -2 -6 3 0 5
-39 30 -87 54 -49 25 -89 48 -91 53 -2 4 -10 7 -18 7 -7 0 -28 8 -46 18 -90
49 -505 213 -573 226 -5 1 -16 5 -22 9 -7 5 -13 6 -13 3 0 -3 -18 1 -40 9 -22
8 -40 12 -40 9 0 -2 -15 2 -32 9 -18 8 -36 15 -40 15 -5 1 -10 3 -13 3 -3 1
-14 3 -25 4 -11 1 -22 4 -25 5 -6 3 -5 3 -60 15 -22 4 -44 9 -50 11 -5 1 -50
10 -100 19 -49 9 -97 19 -106 20 -26 5 -78 13 -169 25 -128 18 -129 18 -210
25 -41 3 -97 8 -125 11 -55 6 -732 14 -737 9z"/>
<path d="M3757 8244 c-2 -2 -45 -6 -97 -9 -52 -3 -115 -7 -140 -10 -94 -9
-166 -17 -185 -21 -11 -2 -37 -6 -59 -9 -21 -3 -52 -7 -70 -10 -17 -3 -58 -10
-91 -16 -33 -5 -82 -15 -110 -21 -27 -6 -59 -12 -70 -13 -11 -1 -27 -5 -35 -8
-16 -6 -119 -31 -135 -33 -5 0 -22 -6 -36 -12 -14 -5 -39 -12 -55 -15 -16 -3
-41 -10 -56 -16 -16 -6 -28 -8 -28 -5 0 4 -6 2 -12 -3 -7 -6 -26 -14 -43 -18
-37 -10 -34 -9 -68 -23 -16 -7 -32 -12 -36 -12 -5 0 -26 -8 -47 -17 -22 -9
-43 -18 -49 -19 -15 -3 -140 -57 -218 -93 -37 -17 -70 -31 -74 -31 -4 0 -14
-6 -22 -13 -9 -7 -36 -22 -61 -32 -25 -11 -47 -22 -50 -25 -3 -4 -25 -17 -50
-31 -46 -25 -108 -63 -125 -77 -5 -4 -13 -9 -18 -10 -7 -2 -150 -96 -175 -116
-7 -6 -22 -19 -33 -28 -10 -10 -23 -18 -28 -18 -5 0 -11 -3 -13 -8 -2 -4 -28
-26 -58 -50 -138 -106 -453 -419 -494 -489 -4 -9 -16 -23 -25 -32 -38 -41 -59
-70 -54 -75 4 -3 2 -6 -4 -6 -5 0 -25 -21 -43 -47 -19 -27 -38 -49 -42 -51 -4
-2 -8 -8 -8 -13 0 -5 -24 -44 -54 -87 -61 -89 -186 -298 -186 -312 0 -6 -5
-10 -12 -10 -6 0 -8 -3 -5 -7 4 -3 3 -11 -2 -17 -18 -21 -130 -252 -175 -361
-52 -122 -57 -135 -79 -185 -9 -19 -13 -38 -11 -42 3 -4 0 -8 -5 -8 -6 0 -10
-3 -9 -7 2 -7 -14 -56 -39 -123 -4 -8 -7 -17 -7 -20 -1 -3 -5 -11 -10 -18 -4
-7 -5 -16 -2 -19 3 -3 1 -11 -4 -18 -5 -6 -11 -20 -13 -31 -2 -10 -7 -26 -11
-34 -3 -8 -15 -46 -26 -85 -24 -81 -25 -85 -33 -105 -17 -45 -54 -209 -46
-204 5 3 20 22 33 42 13 21 34 48 47 63 13 14 36 41 50 60 105 137 417 451
544 547 6 4 39 30 75 57 36 28 89 65 118 84 28 18 52 38 52 44 0 6 3 8 6 4 3
-3 36 14 73 38 38 24 74 45 82 47 8 2 16 6 19 10 9 12 206 106 280 133 3 1 17
7 32 13 15 6 53 19 85 28 32 9 63 19 68 22 6 4 15 7 20 8 6 1 37 9 70 17 33 9
96 22 140 31 73 13 114 19 230 31 57 6 301 7 355 1 25 -3 72 -7 105 -10 33 -3
74 -8 90 -11 136 -23 146 -25 270 -54 10 -3 32 -9 90 -26 33 -10 66 -19 75
-20 8 -2 17 -4 20 -5 3 -1 8 -2 13 -1 4 0 7 -3 7 -9 0 -5 7 -10 15 -10 8 0 23
-4 33 -9 9 -5 28 -13 42 -19 47 -18 215 -104 241 -123 15 -10 38 -23 53 -29
14 -5 26 -14 26 -20 0 -5 5 -10 11 -10 6 0 33 -16 59 -35 26 -19 53 -35 59
-35 7 0 9 -4 6 -10 -3 -5 0 -10 7 -10 7 0 27 -13 45 -28 17 -15 66 -54 108
-87 42 -33 101 -82 130 -110 30 -27 87 -80 127 -117 40 -36 231 -223 423 -415
193 -191 397 -391 454 -443 57 -52 108 -100 115 -106 6 -5 56 -48 111 -94 55
-46 102 -86 105 -90 3 -3 21 -17 40 -30 19 -13 37 -27 40 -30 5 -5 74 -56 155
-115 22 -16 42 -33 43 -37 2 -4 8 -8 13 -8 5 0 48 -26 97 -59 79 -53 111 -73
245 -150 62 -35 335 -171 344 -171 5 0 25 -9 45 -19 19 -11 39 -17 42 -14 3 4
6 1 6 -5 0 -7 8 -12 18 -12 10 0 22 -3 26 -7 3 -4 12 -8 19 -9 18 -4 81 -28
87 -34 6 -6 30 -12 48 -13 6 0 12 -4 12 -9 0 -4 9 -8 20 -8 10 0 29 -4 42 -9
35 -14 62 -24 73 -26 6 -2 42 -12 82 -24 146 -43 421 -105 566 -126 20 -3 54
-7 75 -10 20 -3 48 -8 62 -11 14 -2 54 -6 90 -9 36 -3 87 -7 114 -11 81 -10
153 -14 356 -19 107 -3 197 -5 200 -6 3 -1 9 -1 14 0 5 1 82 4 170 7 162 5
205 7 351 20 96 8 130 11 130 14 0 1 16 3 35 5 41 3 114 13 150 20 14 2 41 7
60 10 46 8 80 14 110 20 14 3 39 8 55 11 17 2 75 16 130 30 55 14 109 27 119
30 63 13 404 127 461 154 11 5 62 28 113 50 100 43 254 122 321 164 22 14 45
26 51 26 5 0 10 5 10 11 0 5 5 7 10 4 6 -3 10 -2 10 2 0 5 20 19 45 33 25 14
45 28 45 32 0 5 5 8 11 8 11 0 82 50 87 63 2 4 8 7 13 7 8 0 172 124 205 155
6 5 42 38 80 71 71 64 196 189 259 259 34 38 54 61 134 159 44 53 171 225 171
230 0 3 21 35 46 72 49 72 173 284 214 369 14 28 29 53 33 56 5 3 8 8 7 10 -1
2 13 36 31 74 18 39 32 73 31 78 -1 4 2 7 8 7 6 0 9 3 8 8 -1 4 3 17 10 30 7
12 10 22 6 22 -3 0 -2 6 4 13 10 12 90 200 97 227 2 8 8 26 13 40 5 14 10 28
11 32 1 4 11 29 22 54 11 26 17 49 14 52 -3 3 0 11 5 17 10 12 37 96 82 250
11 39 21 75 22 80 12 49 28 103 36 117 5 9 6 19 1 22 -4 3 -31 -25 -59 -62
-29 -37 -65 -83 -82 -102 -36 -41 -105 -120 -149 -170 -17 -19 -31 -39 -31
-43 0 -5 -3 -6 -7 -4 -5 2 -24 -15 -43 -39 -19 -23 -38 -43 -41 -43 -3 -1 -39
-34 -81 -73 -91 -88 -129 -121 -196 -173 -29 -21 -52 -43 -52 -48 0 -4 -4 -6
-9 -3 -5 4 -11 3 -13 -2 -1 -4 -28 -25 -58 -47 -30 -22 -56 -43 -58 -47 -2 -5
-8 -8 -14 -8 -5 0 -29 -14 -53 -30 -24 -17 -48 -30 -53 -30 -5 0 -15 -7 -22
-14 -13 -16 -310 -166 -328 -166 -7 0 -12 -5 -12 -11 0 -5 -4 -8 -8 -5 -5 3
-44 -8 -87 -24 -95 -35 -283 -84 -385 -100 -41 -6 -86 -14 -100 -17 -43 -10
-472 -12 -530 -3 -30 5 -75 12 -100 15 -25 4 -54 8 -65 10 -11 3 -36 7 -55 10
-27 4 -161 36 -245 58 -99 27 -346 131 -353 149 -2 5 -7 6 -12 3 -4 -3 -13 2
-20 10 -7 8 -17 15 -23 15 -11 0 -26 9 -141 86 -32 21 -66 44 -75 49 -41 26
-77 51 -93 65 -9 8 -23 20 -30 25 -17 13 -119 97 -134 110 -7 5 -40 35 -75 65
-111 97 -215 198 -553 535 -311 309 -533 521 -618 590 -7 6 -40 33 -73 61 -33
28 -71 60 -84 70 -13 11 -28 24 -35 29 -6 6 -27 22 -46 35 -32 23 -54 40 -84
65 -7 6 -19 15 -28 20 -8 6 -73 50 -144 99 -71 49 -137 91 -146 93 -10 3 -18
9 -18 14 0 5 -7 9 -15 9 -8 0 -15 5 -15 12 0 6 -3 8 -7 5 -3 -4 -13 -1 -22 7
-9 7 -45 29 -81 47 -36 19 -66 37 -68 42 -2 4 -10 7 -18 7 -8 0 -14 5 -14 10
0 6 -3 9 -7 8 -8 -2 -36 10 -193 85 -41 20 -104 47 -140 62 -36 14 -74 30 -85
34 -11 5 -42 16 -70 26 -27 9 -57 19 -65 22 -8 4 -17 7 -20 8 -3 1 -12 4 -20
8 -8 3 -28 9 -45 13 -35 9 -35 9 -55 17 -23 10 -302 82 -360 93 -14 3 -44 9
-68 15 -45 10 -86 17 -139 23 -18 3 -36 7 -40 9 -4 3 -35 7 -68 11 -33 3 -71
8 -85 11 -28 5 -103 13 -190 20 -145 12 -172 15 -182 21 -7 5 -8 2 -3 -6 5 -8
4 -11 -3 -6 -18 11 -72 14 -72 3 0 -6 -5 -6 -12 1 -12 9 -592 15 -601 6z"/>
</g>
</svg>
